<svg xmlns="http://www.w3.org/2000/svg" width="1120" height="435" viewBox="0 0 1120 435">
<rect width="100%" height="100%" fill="white"/>
<text x="18" y="25" font-family="sans-serif" font-size="17">Global F1466: D1_DELAYED / CORRECT</text>
<text x="18" y="47" font-family="sans-serif" font-size="12">DS36 adaptive core (distinct from original profile core): q05-q95 with q25/median/q75; all layers retained; empirical proxy, no identity guarantee</text>
<text x="18" y="94" font-family="sans-serif" font-size="13">q n176</text>
<line x1="380.00" x2="909.41" y1="90" y2="90" stroke="#111111" stroke-width="2"/>
<circle cx="523.67" cy="90" r="3" fill="#111111"/>
<circle cx="657.35" cy="90" r="5" fill="#111111"/>
<circle cx="791.20" cy="90" r="3" fill="#111111"/>
<text x="380" y="114" font-family="sans-serif" font-size="11">n=151; fraction=0.774; scale=26.2 mm; support=True</text>
<text x="18" y="159" font-family="sans-serif" font-size="13">p126 SAME cost=1000000.0</text>
<line x1="422.95" x2="826.26" y1="155" y2="155" stroke="#228844" stroke-width="2"/>
<circle cx="480.70" cy="155" r="3" fill="#228844"/>
<circle cx="543.23" cy="155" r="5" fill="#228844"/>
<circle cx="646.87" cy="155" r="3" fill="#228844"/>
<text x="380" y="179" font-family="sans-serif" font-size="11">n=122; fraction=0.808; scale=15.0 mm; support=True</text>
<text x="18" y="224" font-family="sans-serif" font-size="13">p136 DIFFERENT cost=1000000.0</text>
<line x1="705.19" x2="992.71" y1="220" y2="220" stroke="#bc3434" stroke-width="2"/>
<circle cx="816.81" cy="220" r="3" fill="#bc3434"/>
<circle cx="875.00" cy="220" r="5" fill="#bc3434"/>
<circle cx="934.93" cy="220" r="3" fill="#bc3434"/>
<text x="380" y="244" font-family="sans-serif" font-size="11">n=89; fraction=0.840; scale=15.0 mm; support=True</text>
<text x="18" y="289" font-family="sans-serif" font-size="13">p163 DIFFERENT cost=1000000.0</text>
<line x1="440.60" x2="1060.00" y1="285" y2="285" stroke="#bc3434" stroke-width="2"/>
<circle cx="611.89" cy="285" r="3" fill="#bc3434"/>
<circle cx="793.43" cy="285" r="5" fill="#bc3434"/>
<circle cx="930.88" cy="285" r="3" fill="#bc3434"/>
<text x="380" y="309" font-family="sans-serif" font-size="11">n=205; fraction=0.995; scale=33.4 mm; support=True</text>
<text x="18" y="354" font-family="sans-serif" font-size="13">p167 SELECTED SAME cost=0.2</text>
<line x1="790.35" x2="999.13" y1="350" y2="350" stroke="#228844" stroke-width="2"/>
<circle cx="838.94" cy="350" r="3" fill="#228844"/>
<circle cx="877.75" cy="350" r="5" fill="#228844"/>
<circle cx="914.52" cy="350" r="3" fill="#228844"/>
<text x="380" y="374" font-family="sans-serif" font-size="11">n=160; fraction=0.744; scale=15.0 mm; support=True</text>
<text x="380" y="423" font-family="sans-serif" font-size="12">Depth 1096.9 to 1186.3 mm; green=SAME reference, red=DIFFERENT, grey=unscorable (postseal labels)</text></svg>