<svg xmlns="http://www.w3.org/2000/svg" width="1120" height="370" viewBox="0 0 1120 370">
<rect width="100%" height="100%" fill="white"/>
<text x="18" y="25" font-family="sans-serif" font-size="17">Global F1681: D1_DELAYED / WRONG</text>
<text x="18" y="47" font-family="sans-serif" font-size="12">DS36 adaptive core (distinct from original profile core): q05-q95 with q25/median/q75; all layers retained; empirical proxy, no identity guarantee</text>
<text x="18" y="94" font-family="sans-serif" font-size="13">q n188</text>
<line x1="891.78" x2="1060.00" y1="90" y2="90" stroke="#111111" stroke-width="2"/>
<circle cx="928.40" cy="90" r="3" fill="#111111"/>
<circle cx="982.34" cy="90" r="5" fill="#111111"/>
<circle cx="1026.59" cy="90" r="3" fill="#111111"/>
<text x="380" y="114" font-family="sans-serif" font-size="11">n=120; fraction=0.745; scale=15.0 mm; support=True</text>
<text x="18" y="159" font-family="sans-serif" font-size="13">p119 DIFFERENT cost=1000000.0</text>
<line x1="814.34" x2="1022.32" y1="155" y2="155" stroke="#bc3434" stroke-width="2"/>
<circle cx="878.60" cy="155" r="3" fill="#bc3434"/>
<circle cx="954.81" cy="155" r="5" fill="#bc3434"/>
<circle cx="993.72" cy="155" r="3" fill="#bc3434"/>
<text x="380" y="179" font-family="sans-serif" font-size="11">n=260; fraction=0.909; scale=15.0 mm; support=True</text>
<text x="18" y="224" font-family="sans-serif" font-size="13">p125 SELECTED DIFFERENT cost=0.2</text>
<line x1="737.15" x2="1035.64" y1="220" y2="220" stroke="#bc3434" stroke-width="2"/>
<circle cx="797.22" cy="220" r="3" fill="#bc3434"/>
<circle cx="908.91" cy="220" r="5" fill="#bc3434"/>
<circle cx="979.90" cy="220" r="3" fill="#bc3434"/>
<text x="380" y="244" font-family="sans-serif" font-size="11">n=176; fraction=0.994; scale=22.2 mm; support=True</text>
<text x="18" y="289" font-family="sans-serif" font-size="13">p132 DIFFERENT cost=1000000.0</text>
<line x1="380.00" x2="1053.70" y1="285" y2="285" stroke="#bc3434" stroke-width="2"/>
<circle cx="427.49" cy="285" r="3" fill="#bc3434"/>
<circle cx="698.91" cy="285" r="5" fill="#bc3434"/>
<circle cx="918.86" cy="285" r="3" fill="#bc3434"/>
<text x="380" y="309" font-family="sans-serif" font-size="11">n=167; fraction=0.965; scale=68.0 mm; support=False</text>
<text x="380" y="358" font-family="sans-serif" font-size="12">Depth 1047.0 to 1172.9 mm; green=SAME reference, red=DIFFERENT, grey=unscorable (postseal labels)</text></svg>