<svg xmlns="http://www.w3.org/2000/svg" width="1120" height="370" viewBox="0 0 1120 370">
<rect width="100%" height="100%" fill="white"/>
<text x="18" y="25" font-family="sans-serif" font-size="17">Global F849: D1_DELAYED / WRONG</text>
<text x="18" y="47" font-family="sans-serif" font-size="12">DS36 adaptive core (distinct from original profile core): q05-q95 with q25/median/q75; all layers retained; empirical proxy, no identity guarantee</text>
<text x="18" y="94" font-family="sans-serif" font-size="13">q n119</text>
<line x1="380.00" x2="728.23" y1="90" y2="90" stroke="#111111" stroke-width="2"/>
<circle cx="395.98" cy="90" r="3" fill="#111111"/>
<circle cx="459.48" cy="90" r="5" fill="#111111"/>
<circle cx="528.82" cy="90" r="3" fill="#111111"/>
<text x="380" y="114" font-family="sans-serif" font-size="11">n=161; fraction=0.958; scale=32.5 mm; support=True</text>
<text x="18" y="159" font-family="sans-serif" font-size="13">p70 SELECTED DIFFERENT cost=0.7</text>
<line x1="485.11" x2="814.25" y1="155" y2="155" stroke="#bc3434" stroke-width="2"/>
<circle cx="511.60" cy="155" r="3" fill="#bc3434"/>
<circle cx="537.74" cy="155" r="5" fill="#bc3434"/>
<circle cx="612.08" cy="155" r="3" fill="#bc3434"/>
<text x="380" y="179" font-family="sans-serif" font-size="11">n=157; fraction=0.924; scale=18.7 mm; support=True</text>
<text x="18" y="224" font-family="sans-serif" font-size="13">p106 DIFFERENT cost=1000000.0</text>
<line x1="898.07" x2="996.03" y1="220" y2="220" stroke="#bc3434" stroke-width="2"/>
<circle cx="916.75" cy="220" r="3" fill="#bc3434"/>
<circle cx="941.10" cy="220" r="5" fill="#bc3434"/>
<circle cx="964.76" cy="220" r="3" fill="#bc3434"/>
<text x="380" y="244" font-family="sans-serif" font-size="11">n=208; fraction=0.981; scale=15.0 mm; support=True</text>
<text x="18" y="289" font-family="sans-serif" font-size="13">p117 DIFFERENT cost=1000000.0</text>
<line x1="931.49" x2="1060.00" y1="285" y2="285" stroke="#bc3434" stroke-width="2"/>
<circle cx="996.04" cy="285" r="3" fill="#bc3434"/>
<circle cx="1026.04" cy="285" r="5" fill="#bc3434"/>
<circle cx="1045.03" cy="285" r="3" fill="#bc3434"/>
<text x="380" y="309" font-family="sans-serif" font-size="11">n=163; fraction=0.886; scale=15.0 mm; support=True</text>
<text x="380" y="358" font-family="sans-serif" font-size="12">Depth 960.2 to 1189.5 mm; green=SAME reference, red=DIFFERENT, grey=unscorable (postseal labels)</text></svg>