<svg xmlns="http://www.w3.org/2000/svg" width="1120" height="435" viewBox="0 0 1120 435">
<rect width="100%" height="100%" fill="white"/>
<text x="18" y="25" font-family="sans-serif" font-size="17">Global F1516: D1_DELAYED / WRONG</text>
<text x="18" y="47" font-family="sans-serif" font-size="12">DS36 adaptive core (distinct from original profile core): q05-q95 with q25/median/q75; all layers retained; empirical proxy, no identity guarantee</text>
<text x="18" y="94" font-family="sans-serif" font-size="13">q n178</text>
<line x1="828.23" x2="1060.00" y1="90" y2="90" stroke="#111111" stroke-width="2"/>
<circle cx="897.53" cy="90" r="3" fill="#111111"/>
<circle cx="956.32" cy="90" r="5" fill="#111111"/>
<circle cx="1002.33" cy="90" r="3" fill="#111111"/>
<text x="380" y="114" font-family="sans-serif" font-size="11">n=151; fraction=0.834; scale=15.0 mm; support=True</text>
<text x="18" y="159" font-family="sans-serif" font-size="13">p119 SELECTED DIFFERENT cost=0.4</text>
<line x1="586.37" x2="905.35" y1="155" y2="155" stroke="#bc3434" stroke-width="2"/>
<circle cx="684.93" cy="155" r="3" fill="#bc3434"/>
<circle cx="801.82" cy="155" r="5" fill="#bc3434"/>
<circle cx="861.49" cy="155" r="3" fill="#bc3434"/>
<text x="380" y="179" font-family="sans-serif" font-size="11">n=260; fraction=0.909; scale=15.0 mm; support=True</text>
<text x="18" y="224" font-family="sans-serif" font-size="13">p126 DIFFERENT cost=0.5</text>
<line x1="380.00" x2="819.19" y1="220" y2="220" stroke="#bc3434" stroke-width="2"/>
<circle cx="442.89" cy="220" r="3" fill="#bc3434"/>
<circle cx="510.98" cy="220" r="5" fill="#bc3434"/>
<circle cx="623.85" cy="220" r="3" fill="#bc3434"/>
<text x="380" y="244" font-family="sans-serif" font-size="11">n=122; fraction=0.808; scale=15.0 mm; support=True</text>
<text x="18" y="289" font-family="sans-serif" font-size="13">p136 SAME cost=1000000.0</text>
<line x1="687.35" x2="1000.46" y1="285" y2="285" stroke="#228844" stroke-width="2"/>
<circle cx="808.90" cy="285" r="3" fill="#228844"/>
<circle cx="872.28" cy="285" r="5" fill="#228844"/>
<circle cx="937.53" cy="285" r="3" fill="#228844"/>
<text x="380" y="309" font-family="sans-serif" font-size="11">n=89; fraction=0.840; scale=15.0 mm; support=True</text>
<text x="18" y="354" font-family="sans-serif" font-size="13">p173 SAME cost=1000000.0</text>
<line x1="528.29" x2="793.29" y1="350" y2="350" stroke="#228844" stroke-width="2"/>
<circle cx="601.57" cy="350" r="3" fill="#228844"/>
<circle cx="660.42" cy="350" r="5" fill="#228844"/>
<circle cx="721.99" cy="350" r="3" fill="#228844"/>
<text x="380" y="374" font-family="sans-serif" font-size="11">n=151; fraction=1.000; scale=15.0 mm; support=True</text>
<text x="380" y="423" font-family="sans-serif" font-size="12">Depth 1102.5 to 1184.6 mm; green=SAME reference, red=DIFFERENT, grey=unscorable (postseal labels)</text></svg>