<svg xmlns="http://www.w3.org/2000/svg" width="2070" height="665" viewBox="0 0 2070 665">
<rect width="2070" height="665" fill="#111827"/>
<text x="20" y="33" fill="white" font-size="23" font-family="sans-serif">SOURCE_OLD F159: native 26 to historical public 16</text>
<text x="20" y="57" fill="#9ca3af" font-size="14">Geometry schematic from actual prediction boxes, not RGB or mask pixels; no visual identity claim.</text>
<rect x="20" y="82" width="640" height="360" fill="#1f2937" stroke="#6b7280"/>
<rect x="162.0" y="208.0" width="42.0" height="52.0" fill="none" stroke="#6b7280" stroke-width="1" opacity="0.45"/>
<rect x="211.0" y="218.0" width="71.0" height="54.0" fill="none" stroke="#6b7280" stroke-width="1" opacity="0.45"/>
<rect x="151.0" y="252.0" width="59.0" height="39.0" fill="none" stroke="#6b7280" stroke-width="1" opacity="0.45"/>
<rect x="175.0" y="181.0" width="29.0" height="15.0" fill="none" stroke="#6b7280" stroke-width="1" opacity="0.45"/>
<rect x="132.0" y="122.0" width="26.0" height="67.0" fill="none" stroke="#6b7280" stroke-width="1" opacity="0.45"/>
<rect x="383.0" y="218.0" width="10.0" height="8.0" fill="none" stroke="#6b7280" stroke-width="1" opacity="0.45"/>
<rect x="70.0" y="293.0" width="23.0" height="83.0" fill="none" stroke="#6b7280" stroke-width="1" opacity="0.45"/>
<rect x="86.0" y="306.0" width="42.0" height="70.0" fill="none" stroke="#6b7280" stroke-width="1" opacity="0.45"/>
<rect x="60.0" y="156.0" width="66.0" height="49.0" fill="none" stroke="#6b7280" stroke-width="1" opacity="0.45"/>
<rect x="127.0" y="195.0" width="48.0" height="29.0" fill="none" stroke="#6b7280" stroke-width="1" opacity="0.45"/>
<rect x="101.0" y="209.0" width="28.0" height="56.0" fill="none" stroke="#6b7280" stroke-width="1" opacity="0.45"/>
<rect x="63.0" y="205.0" width="72.0" height="29.0" fill="none" stroke="#6b7280" stroke-width="1" opacity="0.45"/>
<rect x="248.0" y="280.0" width="74.0" height="68.0" fill="none" stroke="#6b7280" stroke-width="1" opacity="0.45"/>
<rect x="292.0" y="274.0" width="67.0" height="36.0" fill="none" stroke="#6b7280" stroke-width="1" opacity="0.45"/>
<rect x="103.0" y="310.0" width="43.0" height="47.0" fill="none" stroke="#6b7280" stroke-width="1" opacity="0.45"/>
<rect x="137.0" y="241.0" width="59.0" height="42.0" fill="none" stroke="#6b7280" stroke-width="1" opacity="0.45"/>
<rect x="148.0" y="305.0" width="57.0" height="43.0" fill="none" stroke="#6b7280" stroke-width="1" opacity="0.45"/>
<rect x="299.0" y="136.0" width="72.0" height="49.0" fill="none" stroke="#6b7280" stroke-width="1" opacity="0.45"/>
<rect x="137.0" y="334.0" width="69.0" height="29.0" fill="none" stroke="#6b7280" stroke-width="1" opacity="0.45"/>
<rect x="245.0" y="198.0" width="12.0" height="68.0" fill="none" stroke="#6b7280" stroke-width="1" opacity="0.45"/>
<rect x="206.0" y="154.0" width="27.0" height="54.0" fill="none" stroke="#fb7185" stroke-width="3" opacity="1"/>
<rect x="176.0" y="264.0" width="49.0" height="40.0" fill="none" stroke="#6b7280" stroke-width="1" opacity="0.45"/>
<rect x="207.0" y="279.0" width="18.0" height="67.0" fill="none" stroke="#6b7280" stroke-width="1" opacity="0.45"/>
<rect x="331.0" y="228.0" width="43.0" height="43.0" fill="none" stroke="#6b7280" stroke-width="1" opacity="0.45"/>
<rect x="78.0" y="198.0" width="10.0" height="8.0" fill="none" stroke="#6b7280" stroke-width="1" opacity="0.45"/>
<text x="20" y="469" fill="white" font-size="15" font-family="monospace">F158  N=26  B0=26  PX=26  PX-A=26</text>
<text x="20" y="496" fill="#fbbf24" font-size="12">D1_DELAYED to 4: source_segment_unqualified_or_no_continuous_history, D1_DELAYED to 8: source_</text>
<rect x="710" y="82" width="640" height="360" fill="#1f2937" stroke="#6b7280"/>
<rect x="852.0" y="209.0" width="43.0" height="50.0" fill="none" stroke="#6b7280" stroke-width="1" opacity="0.45"/>
<rect x="901.0" y="218.0" width="69.0" height="52.0" fill="none" stroke="#6b7280" stroke-width="1" opacity="0.45"/>
<rect x="840.0" y="253.0" width="59.0" height="39.0" fill="none" stroke="#6b7280" stroke-width="1" opacity="0.45"/>
<rect x="863.0" y="181.0" width="31.0" height="16.0" fill="none" stroke="#6b7280" stroke-width="1" opacity="0.45"/>
<rect x="822.0" y="122.0" width="25.0" height="67.0" fill="none" stroke="#6b7280" stroke-width="1" opacity="0.45"/>
<rect x="1044.0" y="230.0" width="17.0" height="21.0" fill="none" stroke="#6b7280" stroke-width="1" opacity="0.45"/>
<rect x="760.0" y="293.0" width="23.0" height="83.0" fill="none" stroke="#6b7280" stroke-width="1" opacity="0.45"/>
<rect x="776.0" y="304.0" width="41.0" height="73.0" fill="none" stroke="#6b7280" stroke-width="1" opacity="0.45"/>
<rect x="750.0" y="156.0" width="66.0" height="49.0" fill="none" stroke="#6b7280" stroke-width="1" opacity="0.45"/>
<rect x="815.0" y="196.0" width="46.0" height="30.0" fill="none" stroke="#6b7280" stroke-width="1" opacity="0.45"/>
<rect x="791.0" y="209.0" width="28.0" height="57.0" fill="none" stroke="#6b7280" stroke-width="1" opacity="0.45"/>
<rect x="753.0" y="205.0" width="70.0" height="29.0" fill="none" stroke="#6b7280" stroke-width="1" opacity="0.45"/>
<rect x="938.0" y="279.0" width="72.0" height="70.0" fill="none" stroke="#6b7280" stroke-width="1" opacity="0.45"/>
<rect x="986.0" y="273.0" width="67.0" height="37.0" fill="none" stroke="#6b7280" stroke-width="1" opacity="0.45"/>
<rect x="793.0" y="312.0" width="43.0" height="48.0" fill="none" stroke="#6b7280" stroke-width="1" opacity="0.45"/>
<rect x="831.0" y="243.0" width="57.0" height="42.0" fill="none" stroke="#6b7280" stroke-width="1" opacity="0.45"/>
<rect x="835.0" y="304.0" width="62.0" height="41.0" fill="none" stroke="#6b7280" stroke-width="1" opacity="0.45"/>
<rect x="1003.0" y="148.0" width="75.0" height="46.0" fill="none" stroke="#6b7280" stroke-width="1" opacity="0.45"/>
<rect x="828.0" y="333.0" width="68.0" height="31.0" fill="none" stroke="#6b7280" stroke-width="1" opacity="0.45"/>
<rect x="933.0" y="198.0" width="15.0" height="67.0" fill="none" stroke="#6b7280" stroke-width="1" opacity="0.45"/>
<rect x="895.0" y="153.0" width="28.0" height="54.0" fill="none" stroke="#fb7185" stroke-width="3" opacity="1"/>
<rect x="865.0" y="263.0" width="49.0" height="42.0" fill="none" stroke="#6b7280" stroke-width="1" opacity="0.45"/>
<rect x="897.0" y="279.0" width="18.0" height="67.0" fill="none" stroke="#6b7280" stroke-width="1" opacity="0.45"/>
<rect x="1012.0" y="243.0" width="34.0" height="36.0" fill="none" stroke="#6b7280" stroke-width="1" opacity="0.45"/>
<rect x="767.0" y="198.0" width="10.0" height="7.0" fill="none" stroke="#6b7280" stroke-width="1" opacity="0.45"/>
<text x="710" y="469" fill="white" font-size="15" font-family="monospace">F159  N=26  B0=16  PX=16  PX-A=16</text>
<text x="710" y="496" fill="#fbbf24" font-size="12">D1_DELAYED to 4: source_segment_unqualified_or_no_continuous_history, D1_DELAYED to 8: source_</text>
<rect x="1400" y="82" width="640" height="360" fill="#1f2937" stroke="#6b7280"/>
<rect x="1543.0" y="211.0" width="42.0" height="47.0" fill="none" stroke="#6b7280" stroke-width="1" opacity="0.45"/>
<rect x="1591.0" y="219.0" width="67.0" height="48.0" fill="none" stroke="#6b7280" stroke-width="1" opacity="0.45"/>
<rect x="1530.0" y="253.0" width="59.0" height="39.0" fill="none" stroke="#6b7280" stroke-width="1" opacity="0.45"/>
<rect x="1551.0" y="182.0" width="33.0" height="18.0" fill="none" stroke="#6b7280" stroke-width="1" opacity="0.45"/>
<rect x="1512.0" y="122.0" width="25.0" height="67.0" fill="none" stroke="#6b7280" stroke-width="1" opacity="0.45"/>
<rect x="1710.0" y="238.0" width="30.0" height="33.0" fill="none" stroke="#6b7280" stroke-width="1" opacity="0.45"/>
<rect x="1450.0" y="293.0" width="22.0" height="83.0" fill="none" stroke="#6b7280" stroke-width="1" opacity="0.45"/>
<rect x="1466.0" y="303.0" width="40.0" height="74.0" fill="none" stroke="#6b7280" stroke-width="1" opacity="0.45"/>
<rect x="1440.0" y="156.0" width="65.0" height="50.0" fill="none" stroke="#6b7280" stroke-width="1" opacity="0.45"/>
<rect x="1504.0" y="196.0" width="47.0" height="32.0" fill="none" stroke="#6b7280" stroke-width="1" opacity="0.45"/>
<rect x="1480.0" y="208.0" width="29.0" height="58.0" fill="none" stroke="#6b7280" stroke-width="1" opacity="0.45"/>
<rect x="1443.0" y="205.0" width="70.0" height="29.0" fill="none" stroke="#6b7280" stroke-width="1" opacity="0.45"/>
<rect x="1628.0" y="279.0" width="71.0" height="71.0" fill="none" stroke="#6b7280" stroke-width="1" opacity="0.45"/>
<rect x="1676.0" y="270.0" width="71.0" height="44.0" fill="none" stroke="#6b7280" stroke-width="1" opacity="0.45"/>
<rect x="1482.0" y="314.0" width="44.0" height="47.0" fill="none" stroke="#6b7280" stroke-width="1" opacity="0.45"/>
<rect x="1524.0" y="246.0" width="56.0" height="39.0" fill="none" stroke="#6b7280" stroke-width="1" opacity="0.45"/>
<rect x="1524.0" y="304.0" width="65.0" height="38.0" fill="none" stroke="#6b7280" stroke-width="1" opacity="0.45"/>
<rect x="1709.0" y="160.0" width="58.0" height="31.0" fill="none" stroke="#6b7280" stroke-width="1" opacity="0.45"/>
<rect x="1519.0" y="333.0" width="68.0" height="31.0" fill="none" stroke="#6b7280" stroke-width="1" opacity="0.45"/>
<rect x="1621.0" y="198.0" width="18.0" height="64.0" fill="none" stroke="#6b7280" stroke-width="1" opacity="0.45"/>
<rect x="1584.0" y="152.0" width="30.0" height="54.0" fill="none" stroke="#fb7185" stroke-width="3" opacity="1"/>
<rect x="1554.0" y="259.0" width="50.0" height="47.0" fill="none" stroke="#6b7280" stroke-width="1" opacity="0.45"/>
<rect x="1587.0" y="278.0" width="19.0" height="67.0" fill="none" stroke="#6b7280" stroke-width="1" opacity="0.45"/>
<rect x="1696.0" y="247.0" width="35.0" height="39.0" fill="none" stroke="#6b7280" stroke-width="1" opacity="0.45"/>
<rect x="1457.0" y="198.0" width="10.0" height="7.0" fill="none" stroke="#6b7280" stroke-width="1" opacity="0.45"/>
<text x="1400" y="469" fill="white" font-size="15" font-family="monospace">F160  N=26  B0=16  PX=16  PX-A=16</text>
<text x="1400" y="496" fill="#fbbf24" font-size="12">no candidate edge</text>
<text x="20" y="540" fill="#d1d5db" font-size="13" font-family="monospace">At F159, source live version: UNKNOWN</text>
<text x="20" y="566" fill="#d1d5db" font-size="13" font-family="monospace">Target anchor key: [&#x27;SOURCE_OLD/feeding_000000_000199&#x27;, 16, 16, 15, &#x27;n:16&#x27;]; version: SOURCE_OLD/feeding_000000_000199:native:16:start:1:gen:13ce92db0151427f</text>
<text x="20" y="592" fill="#d1d5db" font-size="13" font-family="monospace">Pair evidence: NO_PAIR; observed frames []; time UNKNOWN</text>
<text x="20" y="618" fill="#d1d5db" font-size="13" font-family="monospace">Lookup: REGISTERED; veto: False; actual public: 16</text>
</svg>