<svg xmlns="http://www.w3.org/2000/svg" width="2070" height="665" viewBox="0 0 2070 665">
<rect width="2070" height="665" fill="#111827"/>
<text x="20" y="33" fill="white" font-size="23" font-family="sans-serif">SOURCE_OLD F157: native 30 to historical public 4</text>
<text x="20" y="57" fill="#9ca3af" font-size="14">Geometry schematic from actual prediction boxes, not RGB or mask pixels; no visual identity claim.</text>
<rect x="20" y="82" width="640" height="360" fill="#1f2937" stroke="#6b7280"/>
<rect x="164.0" y="209.0" width="38.0" height="51.0" fill="none" stroke="#6b7280" stroke-width="1" opacity="0.45"/>
<rect x="193.0" y="221.0" width="85.0" height="53.0" fill="none" stroke="#6b7280" stroke-width="1" opacity="0.45"/>
<rect x="152.0" y="250.0" width="59.0" height="40.0" fill="none" stroke="#6b7280" stroke-width="1" opacity="0.45"/>
<rect x="175.0" y="180.0" width="28.0" height="15.0" fill="none" stroke="#6b7280" stroke-width="1" opacity="0.45"/>
<rect x="132.0" y="122.0" width="26.0" height="67.0" fill="none" stroke="#6b7280" stroke-width="1" opacity="0.45"/>
<rect x="383.0" y="194.0" width="30.0" height="37.0" fill="none" stroke="#6b7280" stroke-width="1" opacity="0.45"/>
<rect x="70.0" y="292.0" width="24.0" height="84.0" fill="none" stroke="#6b7280" stroke-width="1" opacity="0.45"/>
<rect x="86.0" y="309.0" width="44.0" height="67.0" fill="none" stroke="#6b7280" stroke-width="1" opacity="0.45"/>
<rect x="60.0" y="158.0" width="68.0" height="48.0" fill="none" stroke="#6b7280" stroke-width="1" opacity="0.45"/>
<rect x="126.0" y="194.0" width="50.0" height="28.0" fill="none" stroke="#6b7280" stroke-width="1" opacity="0.45"/>
<rect x="101.0" y="209.0" width="29.0" height="55.0" fill="none" stroke="#6b7280" stroke-width="1" opacity="0.45"/>
<rect x="64.0" y="205.0" width="71.0" height="29.0" fill="none" stroke="#6b7280" stroke-width="1" opacity="0.45"/>
<rect x="248.0" y="281.0" width="77.0" height="66.0" fill="none" stroke="#6b7280" stroke-width="1" opacity="0.45"/>
<rect x="290.0" y="267.0" width="65.0" height="43.0" fill="none" stroke="#6b7280" stroke-width="1" opacity="0.45"/>
<rect x="103.0" y="306.0" width="44.0" height="50.0" fill="none" stroke="#6b7280" stroke-width="1" opacity="0.45"/>
<rect x="126.0" y="242.0" width="63.0" height="38.0" fill="none" stroke="#6b7280" stroke-width="1" opacity="0.45"/>
<rect x="153.0" y="305.0" width="48.0" height="47.0" fill="none" stroke="#6b7280" stroke-width="1" opacity="0.45"/>
<rect x="261.0" y="130.0" width="73.0" height="34.0" fill="none" stroke="#6b7280" stroke-width="1" opacity="0.45"/>
<rect x="135.0" y="335.0" width="70.0" height="28.0" fill="none" stroke="#6b7280" stroke-width="1" opacity="0.45"/>
<rect x="246.0" y="198.0" width="11.0" height="70.0" fill="none" stroke="#6b7280" stroke-width="1" opacity="0.45"/>
<rect x="207.0" y="155.0" width="26.0" height="54.0" fill="none" stroke="#6b7280" stroke-width="1" opacity="0.45"/>
<rect x="178.0" y="266.0" width="47.0" height="35.0" fill="none" stroke="#6b7280" stroke-width="1" opacity="0.45"/>
<rect x="207.0" y="280.0" width="18.0" height="68.0" fill="none" stroke="#6b7280" stroke-width="1" opacity="0.45"/>
<rect x="351.0" y="219.0" width="27.0" height="29.0" fill="none" stroke="#fb7185" stroke-width="3" opacity="1"/>
<rect x="77.0" y="198.0" width="10.0" height="8.0" fill="none" stroke="#6b7280" stroke-width="1" opacity="0.45"/>
<text x="20" y="469" fill="white" font-size="15" font-family="monospace">F156  N=30  B0=30  PX=30  PX-A=30</text>
<text x="20" y="496" fill="#fbbf24" font-size="12">BIRTH_REFINE to 4: source_segment_unqualified_or_no_continuous_history, BIRTH_REFINE to 8: sou</text>
<rect x="710" y="82" width="640" height="360" fill="#1f2937" stroke="#6b7280"/>
<rect x="853.0" y="208.0" width="40.0" height="52.0" fill="none" stroke="#6b7280" stroke-width="1" opacity="0.45"/>
<rect x="890.0" y="221.0" width="79.0" height="55.0" fill="none" stroke="#6b7280" stroke-width="1" opacity="0.45"/>
<rect x="842.0" y="251.0" width="59.0" height="39.0" fill="none" stroke="#6b7280" stroke-width="1" opacity="0.45"/>
<rect x="865.0" y="181.0" width="28.0" height="15.0" fill="none" stroke="#6b7280" stroke-width="1" opacity="0.45"/>
<rect x="822.0" y="123.0" width="26.0" height="66.0" fill="none" stroke="#6b7280" stroke-width="1" opacity="0.45"/>
<rect x="1073.0" y="215.0" width="20.0" height="16.0" fill="none" stroke="#6b7280" stroke-width="1" opacity="0.45"/>
<rect x="760.0" y="292.0" width="24.0" height="84.0" fill="none" stroke="#6b7280" stroke-width="1" opacity="0.45"/>
<rect x="775.0" y="307.0" width="45.0" height="69.0" fill="none" stroke="#6b7280" stroke-width="1" opacity="0.45"/>
<rect x="750.0" y="157.0" width="67.0" height="49.0" fill="none" stroke="#6b7280" stroke-width="1" opacity="0.45"/>
<rect x="816.0" y="194.0" width="50.0" height="29.0" fill="none" stroke="#6b7280" stroke-width="1" opacity="0.45"/>
<rect x="791.0" y="208.0" width="30.0" height="57.0" fill="none" stroke="#6b7280" stroke-width="1" opacity="0.45"/>
<rect x="754.0" y="205.0" width="70.0" height="29.0" fill="none" stroke="#6b7280" stroke-width="1" opacity="0.45"/>
<rect x="938.0" y="280.0" width="76.0" height="67.0" fill="none" stroke="#6b7280" stroke-width="1" opacity="0.45"/>
<rect x="979.0" y="268.0" width="68.0" height="41.0" fill="none" stroke="#6b7280" stroke-width="1" opacity="0.45"/>
<rect x="793.0" y="308.0" width="44.0" height="48.0" fill="none" stroke="#6b7280" stroke-width="1" opacity="0.45"/>
<rect x="821.0" y="241.0" width="61.0" height="41.0" fill="none" stroke="#6b7280" stroke-width="1" opacity="0.45"/>
<rect x="842.0" y="305.0" width="52.0" height="46.0" fill="none" stroke="#6b7280" stroke-width="1" opacity="0.45"/>
<rect x="968.0" y="137.0" width="73.0" height="37.0" fill="none" stroke="#6b7280" stroke-width="1" opacity="0.45"/>
<rect x="826.0" y="334.0" width="69.0" height="29.0" fill="none" stroke="#6b7280" stroke-width="1" opacity="0.45"/>
<rect x="937.0" y="198.0" width="10.0" height="69.0" fill="none" stroke="#6b7280" stroke-width="1" opacity="0.45"/>
<rect x="896.0" y="154.0" width="27.0" height="55.0" fill="none" stroke="#6b7280" stroke-width="1" opacity="0.45"/>
<rect x="867.0" y="266.0" width="48.0" height="37.0" fill="none" stroke="#6b7280" stroke-width="1" opacity="0.45"/>
<rect x="897.0" y="280.0" width="18.0" height="66.0" fill="none" stroke="#6b7280" stroke-width="1" opacity="0.45"/>
<rect x="1032.0" y="227.0" width="34.0" height="33.0" fill="none" stroke="#fb7185" stroke-width="3" opacity="1"/>
<rect x="768.0" y="198.0" width="9.0" height="8.0" fill="none" stroke="#6b7280" stroke-width="1" opacity="0.45"/>
<text x="710" y="469" fill="white" font-size="15" font-family="monospace">F157  N=30  B0=30  PX=30  PX-A=30</text>
<text x="710" y="496" fill="#fbbf24" font-size="12">D1_DELAYED to 4: no_confirmed_pair_streak, D1_DELAYED to 8: no_confirmed_pair_streak, D1_DELAY</text>
<rect x="1400" y="82" width="640" height="360" fill="#1f2937" stroke="#6b7280"/>
<rect x="1542.0" y="208.0" width="42.0" height="52.0" fill="none" stroke="#6b7280" stroke-width="1" opacity="0.45"/>
<rect x="1591.0" y="218.0" width="71.0" height="54.0" fill="none" stroke="#6b7280" stroke-width="1" opacity="0.45"/>
<rect x="1531.0" y="252.0" width="59.0" height="39.0" fill="none" stroke="#6b7280" stroke-width="1" opacity="0.45"/>
<rect x="1555.0" y="181.0" width="29.0" height="15.0" fill="none" stroke="#6b7280" stroke-width="1" opacity="0.45"/>
<rect x="1512.0" y="122.0" width="26.0" height="67.0" fill="none" stroke="#6b7280" stroke-width="1" opacity="0.45"/>
<rect x="1763.0" y="218.0" width="10.0" height="8.0" fill="none" stroke="#6b7280" stroke-width="1" opacity="0.45"/>
<rect x="1450.0" y="293.0" width="23.0" height="83.0" fill="none" stroke="#6b7280" stroke-width="1" opacity="0.45"/>
<rect x="1466.0" y="306.0" width="42.0" height="70.0" fill="none" stroke="#6b7280" stroke-width="1" opacity="0.45"/>
<rect x="1440.0" y="156.0" width="66.0" height="49.0" fill="none" stroke="#6b7280" stroke-width="1" opacity="0.45"/>
<rect x="1507.0" y="195.0" width="48.0" height="29.0" fill="none" stroke="#6b7280" stroke-width="1" opacity="0.45"/>
<rect x="1481.0" y="209.0" width="28.0" height="56.0" fill="none" stroke="#6b7280" stroke-width="1" opacity="0.45"/>
<rect x="1443.0" y="205.0" width="72.0" height="29.0" fill="none" stroke="#6b7280" stroke-width="1" opacity="0.45"/>
<rect x="1628.0" y="280.0" width="74.0" height="68.0" fill="none" stroke="#6b7280" stroke-width="1" opacity="0.45"/>
<rect x="1672.0" y="274.0" width="67.0" height="36.0" fill="none" stroke="#6b7280" stroke-width="1" opacity="0.45"/>
<rect x="1483.0" y="310.0" width="43.0" height="47.0" fill="none" stroke="#6b7280" stroke-width="1" opacity="0.45"/>
<rect x="1517.0" y="241.0" width="59.0" height="42.0" fill="none" stroke="#6b7280" stroke-width="1" opacity="0.45"/>
<rect x="1528.0" y="305.0" width="57.0" height="43.0" fill="none" stroke="#6b7280" stroke-width="1" opacity="0.45"/>
<rect x="1679.0" y="136.0" width="72.0" height="49.0" fill="none" stroke="#6b7280" stroke-width="1" opacity="0.45"/>
<rect x="1517.0" y="334.0" width="69.0" height="29.0" fill="none" stroke="#6b7280" stroke-width="1" opacity="0.45"/>
<rect x="1625.0" y="198.0" width="12.0" height="68.0" fill="none" stroke="#6b7280" stroke-width="1" opacity="0.45"/>
<rect x="1586.0" y="154.0" width="27.0" height="54.0" fill="none" stroke="#6b7280" stroke-width="1" opacity="0.45"/>
<rect x="1556.0" y="264.0" width="49.0" height="40.0" fill="none" stroke="#6b7280" stroke-width="1" opacity="0.45"/>
<rect x="1587.0" y="279.0" width="18.0" height="67.0" fill="none" stroke="#6b7280" stroke-width="1" opacity="0.45"/>
<rect x="1711.0" y="228.0" width="43.0" height="43.0" fill="none" stroke="#fb7185" stroke-width="3" opacity="1"/>
<rect x="1458.0" y="198.0" width="10.0" height="8.0" fill="none" stroke="#6b7280" stroke-width="1" opacity="0.45"/>
<text x="1400" y="469" fill="white" font-size="15" font-family="monospace">F158  N=30  B0=30  PX=30  PX-A=30</text>
<text x="1400" y="496" fill="#fbbf24" font-size="12">D1_DELAYED to 4: no_confirmed_pair_streak, D1_DELAYED to 8: no_confirmed_pair_streak, D1_DELAY</text>
<text x="20" y="540" fill="#d1d5db" font-size="13" font-family="monospace">At F157, source live version: SOURCE_OLD/feeding_000000_000199:native:30:start:157:gen:406d31486c1ae260</text>
<text x="20" y="566" fill="#d1d5db" font-size="13" font-family="monospace">Target anchor key: [&#x27;SOURCE_OLD/feeding_000000_000199&#x27;, 4, 4, 150, &#x27;n:4&#x27;]; version: SOURCE_OLD/feeding_000000_000199:native:4:start:141:gen:f3476ec9dc95c0e8</text>
<text x="20" y="592" fill="#d1d5db" font-size="13" font-family="monospace">Pair evidence: NO_PAIR; observed frames []; time UNKNOWN</text>
<text x="20" y="618" fill="#d1d5db" font-size="13" font-family="monospace">Lookup: REGISTERED; veto: False; actual public: 30</text>
</svg>